<?xml version="1.0" encoding="UTF-8"?>
<svg id="Layer_1" data-name="Layer 1" xmlns="http://www.w3.org/2000/svg" viewBox="0 0 1920 1080">
  <defs>
    <style>
      .cls-1 {
        fill: #3082a5;
      }

      .cls-2 {
        fill: #fccd2a;
      }
    </style>
  </defs>
  <g>
    <path class="cls-2" d="M617.43,443.18h143.12v25.03h-116.46v61.77h112.65v22.31h-112.65v56.32h116.46v25.03h-143.12v-190.46Z"/>
    <path class="cls-2" d="M774.43,565.62c0-23.58,5.71-41.04,17.14-52.38,11.43-11.33,27.3-17.09,47.62-17.28,4.53,0,9.25.5,14.15,1.5,4.9,1,9.7,2.45,14.42,4.35,4.71,1.91,9.2,4.17,13.47,6.8,4.26,2.63,7.93,5.58,11.02,8.84,2.18,2.18,4.03,4.99,5.58,8.43,1.54,3.45,2.76,6.62,3.67,9.52h.54c-.91-3.08-1.73-6.44-2.45-10.07-.73-3.63-1.09-6.98-1.09-10.07v-72.1h26.67v190.46h-26.67v-16.6c0-3.08.36-6.44,1.09-10.07.72-3.63,1.54-6.89,2.45-9.79l-.54-.27c-.91,2.9-2.13,6.08-3.67,9.52-1.54,3.45-3.4,6.26-5.58,8.43-3.27,3.26-6.99,6.12-11.16,8.57-4.17,2.45-8.62,4.58-13.33,6.39-4.72,1.82-9.52,3.18-14.42,4.08-4.9.91-9.62,1.36-14.15,1.36-20.32,0-36.19-5.71-47.62-17.14s-17.14-28.93-17.14-52.51ZM847.89,518.01c-16.69.18-28.66,4.13-35.92,11.84-7.26,7.71-10.88,19.64-10.88,35.78s3.67,27.98,11.02,35.51c7.35,7.53,19.27,11.29,35.78,11.29,5.99,0,12.01-1.04,18.09-3.13,6.08-2.08,11.52-5.17,16.33-9.25,4.8-4.08,8.71-9.02,11.7-14.83,2.99-5.8,4.49-12.33,4.49-19.59s-1.5-14.1-4.49-20c-2.99-5.89-6.9-10.88-11.7-14.97-4.81-4.08-10.25-7.21-16.33-9.39-6.08-2.18-12.11-3.27-18.09-3.27Z"/>
    <path class="cls-1" d="M946.66,497.6h26.94v17.41c0,3.09-.37,6.44-1.09,10.07-.73,3.63-1.54,6.98-2.45,10.07h.54c.91-2.9,2.13-6.08,3.67-9.52,1.54-3.44,3.4-6.26,5.58-8.44,3.08-3.26,6.76-6.21,11.02-8.84,4.26-2.63,8.71-4.9,13.33-6.8,4.62-1.91,9.39-3.31,14.28-4.22,4.9-.91,9.52-1.36,13.88-1.36,20.31.18,36.19,5.94,47.62,17.28,11.43,11.34,17.14,28.8,17.14,52.38s-5.71,41.09-17.14,52.51c-11.43,11.43-27.3,17.14-47.62,17.14-4.35,0-8.98-.5-13.88-1.5-4.9-.99-9.66-2.36-14.28-4.08-4.63-1.72-9.07-3.85-13.33-6.39-4.26-2.54-7.94-5.44-11.02-8.71-2.18-2.18-4.04-4.99-5.58-8.43-1.54-3.44-2.77-6.62-3.67-9.52h-.54c.91,3.09,1.72,6.44,2.45,10.07.72,3.63,1.09,6.99,1.09,10.07v71.29h-26.67l-.27-190.46ZM973.6,565.62c0,7.26,1.5,13.83,4.49,19.73,2.99,5.9,6.84,10.93,11.56,15.1,4.71,4.17,10.07,7.35,16.05,9.52s11.97,3.26,17.96,3.26c16.69,0,28.66-3.9,35.92-11.7,7.25-7.8,10.88-19.77,10.88-35.92s-3.63-27.93-10.88-35.37c-7.26-7.44-19.23-11.25-35.92-11.43-5.99,0-11.97,1.05-17.96,3.13-5.99,2.09-11.34,5.13-16.05,9.12-4.72,3.99-8.57,8.89-11.56,14.69-2.99,5.81-4.49,12.43-4.49,19.86Z"/>
    <path class="cls-1" d="M1190.18,635.28c-9.98,0-19.55-1.41-28.71-4.22-9.16-2.81-17.14-7.12-23.94-12.92-6.8-5.8-12.24-13.06-16.33-21.77-4.08-8.71-6.12-18.95-6.12-30.75s2.04-22.04,6.12-30.75c4.08-8.71,9.52-15.96,16.33-21.77,6.8-5.8,14.78-10.11,23.94-12.92,9.16-2.81,18.73-4.22,28.71-4.22s19.77,1.45,28.84,4.35c9.07,2.9,17.05,7.21,23.94,12.92,6.89,5.71,12.38,12.92,16.46,21.63s6.12,18.96,6.12,30.75-2.04,22.04-6.12,30.75-9.57,15.96-16.46,21.77c-6.9,5.81-14.88,10.11-23.94,12.92-9.07,2.81-18.69,4.22-28.84,4.22ZM1190.18,518.55c-6.17,0-12.2,1-18.09,2.99-5.9,2-11.07,4.99-15.51,8.98-4.45,3.99-8.03,8.94-10.75,14.83-2.72,5.9-4.08,12.65-4.08,20.27s1.27,14.92,3.81,20.82c2.54,5.9,5.99,10.75,10.34,14.56,4.35,3.81,9.48,6.67,15.37,8.57,5.89,1.9,12.2,2.86,18.91,2.86s12.74-.95,18.64-2.86c5.89-1.9,11.06-4.8,15.51-8.71,4.44-3.9,7.98-8.8,10.61-14.69,2.63-5.89,3.95-12.74,3.95-20.54s-1.32-14.37-3.95-20.27c-2.63-5.89-6.22-10.79-10.75-14.69-4.54-3.9-9.71-6.89-15.51-8.98-5.81-2.08-11.97-3.13-18.5-3.13Z"/>
    <path class="cls-1" d="M1285.14,534.06c0-12.33,2.9-21.5,8.71-27.48,5.8-5.99,14.96-8.98,27.48-8.98h54.69v25.03l-45.98.27c-3.81,0-6.9.18-9.25.54-2.36.37-4.22,1.22-5.58,2.58-1.36,1.36-2.27,3.4-2.72,6.12-.46,2.72-.68,6.44-.68,11.16v90.33h-26.67v-99.59Z"/>
    <path class="cls-1" d="M1390.44,521.54v-25.03h5.17c3.08,0,6.3-1.27,9.66-3.81,3.35-2.54,6.39-5.8,9.12-9.79,2.72-3.99,4.99-8.43,6.8-13.33,1.81-4.9,2.72-9.7,2.72-14.42l26.94-.27c-.37,7.62-2.18,14.83-5.44,21.63-3.26,6.8-8.07,12.29-14.42,16.46-2.36,1.45-5.22,2.5-8.57,3.13-3.36.64-6.39,1.22-9.11,1.77v.54c2.72-.54,5.76-.99,9.11-1.36,3.35-.36,6.39-.54,9.12-.54h48.16v25.03h-34.56v72.38c0,5.99,1.45,9.93,4.35,11.84,2.9,1.91,6.44,2.86,10.61,2.86h26.12v25.03h-24.76c-8.89,0-16.15-.86-21.77-2.58-5.62-1.72-9.98-4.4-13.06-8.03-3.09-3.63-5.22-8.3-6.39-14.01-1.18-5.71-1.77-12.47-1.77-20.27v-67.21h-28.03Z"/>
    <path class="cls-1" d="M1600.77,600.18c-1.82,5.62-4.63,10.52-8.44,14.69-3.81,4.17-8.21,7.62-13.2,10.34-4.99,2.72-10.39,4.76-16.19,6.12-5.81,1.36-11.61,2.04-17.41,2.04-6.71,0-13.24-.82-19.59-2.45-6.35-1.63-11.97-4.08-16.87-7.35-4.9-3.27-8.84-7.3-11.84-12.11-2.99-4.8-4.49-10.29-4.49-16.46,0-9.97,2.67-17.55,8.03-22.72,5.35-5.17,12.06-8.93,20.13-11.29,8.07-2.36,16.78-3.67,26.12-3.94,9.34-.27,18.05-.54,26.12-.82,8.07-.27,14.74-.95,20-2.04,5.26-1.09,7.8-3.54,7.62-7.35-.37-10.34-3.86-17.69-10.48-22.04-6.62-4.35-16.46-6.53-29.52-6.53-5.26,0-10.2.37-14.83,1.09-4.63.73-8.71,2.09-12.24,4.08-3.54,2-6.49,4.72-8.84,8.16-2.36,3.45-3.9,7.89-4.63,13.33l-23.4-3.27c.91-8.16,3.35-15.14,7.35-20.95,3.99-5.8,8.98-10.48,14.97-14.01,5.99-3.54,12.61-6.08,19.86-7.62,7.25-1.54,14.51-2.31,21.77-2.31,8.16,0,16.19.91,24.08,2.72,7.89,1.82,14.92,4.76,21.09,8.84,6.17,4.08,11.11,9.52,14.83,16.33,3.72,6.8,5.58,15.28,5.58,25.44v49.52c0,3.63.63,5.99,1.9,7.07,1.27,1.09,3.35,1.63,6.26,1.63h6.26v25.3h-17.41c-6.9,0-12.38-2.08-16.46-6.26-4.08-4.17-6.12-9.25-6.12-15.24v-11.97ZM1518.87,594.46c0,3.63.91,6.76,2.72,9.39,1.81,2.63,4.22,4.81,7.21,6.53,2.99,1.73,6.53,2.99,10.61,3.81,4.08.82,8.3,1.22,12.65,1.22,5.62,0,11.33-.68,17.14-2.04,5.8-1.36,11.02-3.31,15.65-5.85,4.63-2.54,8.43-5.67,11.43-9.39,2.99-3.72,4.49-7.93,4.49-12.65v-17.96c-3.81,2.18-8.53,3.63-14.15,4.35-5.62.73-11.47,1.18-17.55,1.36-6.08.18-12.11.37-18.09.54-5.99.18-11.34.91-16.05,2.18-4.72,1.27-8.57,3.31-11.56,6.12-2.99,2.81-4.49,6.94-4.49,12.38Z"/>
    <path class="cls-1" d="M1662.8,439.37h26.67v194.27h-26.67v-194.27Z"/>
  </g>
  <g>
    <polygon class="cls-1" points="288.36 524.93 288.36 606.21 397.61 663.14 495.06 605.96 495.06 524.93 398.04 581.39 288.36 524.93"/>
    <polygon class="cls-2" points="289.52 512.34 474.29 406.2 519.64 430.02 336.4 536.13 289.52 512.34"/>
    <path class="cls-2" d="M519.64,592.01l20.42-8.46-9.13-5.11v-8.33c3.15-1.34,5.44-4.4,5.42-7.7-.02-3.28-2.3-5.72-5.42-6.26v-50.58l-4.38,1.75.06,49.28c-3.31,1.26-5.75,4.43-5.73,7.84.02,3.39,2.46,5.9,5.75,6.32v9.15s-6.99,12.11-6.99,12.11Z"/>
    <polygon class="cls-2" points="506.04 452.44 353.18 541.89 398.89 566.06 554.7 478.01 506.04 452.44"/>
    <polygon class="cls-2" points="383.39 391.93 230.54 481.38 276.25 505.56 432.06 417.51 383.39 391.93"/>
  </g>
</svg>